<svg width="75" height="15" viewBox="0 0 75 15" fill="none" xmlns="http://www.w3.org/2000/svg">
<path d="M4.074 3.734H2.898V5.834H0.868V6.898H2.898V8.984H4.074V6.898H6.118V5.834H4.074V3.734Z" fill="#3ACF99"/>
<path d="M18.4894 11C20.3794 11 21.4714 9.558 21.4714 7.318C21.4714 4.966 20.3654 3.454 18.4754 3.454C17.5794 3.454 16.8654 3.776 16.3614 4.378C15.7594 3.748 15.0174 3.454 14.3034 3.454C12.8894 3.454 11.5594 4.49 11.5594 6.968C11.5594 9.824 12.9594 10.888 14.4854 11.616C13.5614 11.616 12.9594 11.742 12.4554 11.91L12.8334 13.072C13.4354 12.75 14.2334 12.428 15.2134 12.428C16.3754 12.428 17.3554 13.198 17.8874 14.024L18.8254 13.408C17.9994 12.19 16.8094 11.714 15.7034 11.224C14.2054 10.566 12.8474 9.544 12.8474 7.15C12.8474 4.938 13.7294 4.49 14.4434 4.49C14.8774 4.49 15.4094 4.658 15.8994 5.148C15.6334 5.736 15.5074 6.464 15.5074 7.304C15.5074 9.488 16.6134 11 18.4894 11ZM18.4754 4.49C19.4974 4.49 20.1134 5.386 20.1134 7.318C20.1134 9.068 19.5114 9.964 18.4894 9.964C17.4674 9.964 16.8654 9.068 16.8654 7.304C16.8654 5.386 17.4674 4.49 18.4754 4.49ZM26.3858 3.622H25.0978C25.0978 5.946 27.4078 6.52 27.4078 8.48C27.4078 9.418 26.9458 10.16 25.8538 10.16C24.8598 10.16 24.2718 9.53 24.2718 8.592C24.2718 8.158 24.3418 7.766 24.4538 7.43L23.3618 7.136C23.1238 7.57 22.9698 8.074 22.9698 8.634C22.9698 9.922 23.9078 11.196 25.8538 11.196C27.4918 11.196 28.7658 10.174 28.7658 8.508C28.7658 6.212 26.3858 5.218 26.3858 3.622ZM34.2206 7.892L33.9126 7.794V6.086H36.1386L36.2786 5.092H33.9126V3.622H32.6246V5.092H30.4126V6.086H32.6246V8.438L33.3106 8.634C34.3886 8.942 35.0186 9.642 35.0186 10.86C35.0186 11.966 34.5846 12.988 33.2966 12.988C32.1626 12.988 31.5886 12.302 31.5886 11.28C31.5886 10.776 31.6726 10.384 31.7986 10.034L30.6926 9.74C30.4406 10.216 30.2866 10.692 30.2866 11.308C30.2866 12.736 31.2106 14.024 33.2966 14.024C35.2426 14.024 36.4046 12.624 36.4046 10.86C36.4046 9.04 35.2146 8.214 34.2206 7.892ZM41.1788 3.622H39.8908C39.8908 5.946 42.2008 6.52 42.2008 8.48C42.2008 9.418 41.7388 10.16 40.6468 10.16C39.6528 10.16 39.0648 9.53 39.0648 8.592C39.0648 8.158 39.1348 7.766 39.2468 7.43L38.1548 7.136C37.9168 7.57 37.7628 8.074 37.7628 8.634C37.7628 9.922 38.7008 11.196 40.6468 11.196C42.2848 11.196 43.5588 10.174 43.5588 8.508C43.5588 6.212 41.1788 5.218 41.1788 3.622ZM49.1256 8.102C50.1756 7.85 50.9456 7.15 50.9456 5.946C50.9456 4.546 49.7696 3.454 48.0616 3.454C46.3956 3.454 45.1916 4.476 45.1916 5.876C45.1916 6.268 45.2896 6.674 45.4576 7.038L46.6196 6.828C46.5496 6.548 46.4936 6.268 46.4936 5.96C46.4936 5.148 46.9976 4.49 48.0616 4.49C49.1256 4.49 49.6156 5.176 49.6156 6.03C49.6156 7.122 48.8876 7.654 48.1036 7.654H47.5716L47.4876 8.69H48.0756C49.3356 8.69 49.8676 9.656 49.8676 10.79C49.8676 12.008 49.4196 12.988 48.1036 12.988C46.9556 12.988 46.3816 12.302 46.3816 11.28C46.3816 10.776 46.4796 10.384 46.5916 10.034L45.4996 9.74C45.2476 10.216 45.0796 10.692 45.0796 11.308C45.0796 12.736 46.0176 14.024 48.1036 14.024C50.0776 14.024 51.2256 12.638 51.2256 10.944C51.2256 9.166 50.1896 8.284 49.1256 8.102ZM57.0771 0.458C56.4611 0.458 55.6351 0.64 55.3271 1.62C55.1031 0.64 54.4311 0.458 53.8711 0.458C53.3391 0.458 52.9611 0.598 52.6111 0.807999L53.0031 1.718C53.3811 1.55 53.6331 1.494 53.8711 1.494C54.4031 1.494 54.6831 1.844 54.6831 2.558V3.104L55.9151 3.02V2.418C55.9151 1.76 56.3351 1.466 56.8391 1.466C57.4271 1.466 57.7631 1.802 57.7631 2.544V4.84C57.2731 4.322 56.6431 3.902 55.7751 3.902C53.9271 3.902 52.9331 5.652 52.9331 7.542C52.9331 9.782 53.9691 11.196 56.0411 11.196C58.0571 11.196 59.0511 9.782 59.0511 7.626V2.46C59.0511 1.032 58.0151 0.458 57.0771 0.458ZM56.0411 10.16C54.8511 10.16 54.3191 9.292 54.3191 7.542C54.3191 5.904 54.9631 4.938 55.9991 4.938C56.7551 4.938 57.3011 5.33 57.7631 5.918V7.542C57.7631 9.138 57.2311 10.16 56.0411 10.16ZM64.5936 3.454C63.7256 3.454 63.0956 3.874 62.6056 4.392V2.698C62.6056 1.872 63.0116 1.466 63.7396 1.466C64.4816 1.466 64.9156 1.634 65.7556 1.634C66.1056 1.634 66.4836 1.578 66.9176 1.382L66.7776 0.458C66.3156 0.611999 66.0076 0.654 65.7416 0.654C65.1536 0.654 64.5656 0.458 63.6696 0.458C62.3396 0.458 61.3176 1.186 61.3176 2.614V7.57C61.3316 9.908 62.3536 11.196 64.3276 11.196C66.2316 11.196 67.4356 9.782 67.4356 7.402C67.4356 5.148 66.4416 3.454 64.5936 3.454ZM64.3276 10.16C63.1656 10.16 62.6056 9.278 62.6056 7.402V5.47C63.0676 4.882 63.6136 4.49 64.3696 4.49C65.4056 4.49 66.0496 5.4 66.0496 7.402C66.0496 9.292 65.4896 10.16 64.3276 10.16ZM72.6105 3.622H71.3225C71.3225 5.946 73.6325 6.52 73.6325 8.48C73.6325 9.418 73.1705 10.16 72.0785 10.16C71.0845 10.16 70.4965 9.53 70.4965 8.592C70.4965 8.158 70.5665 7.766 70.6785 7.43L69.5865 7.136C69.3485 7.57 69.1945 8.074 69.1945 8.634C69.1945 9.922 70.1325 11.196 72.0785 11.196C73.7165 11.196 74.9905 10.174 74.9905 8.508C74.9905 6.212 72.6105 5.218 72.6105 3.622Z" fill="#053354" fill-opacity="0.3"/>
</svg>
