<svg width="6" height="10" viewBox="0 0 6 10" fill="none" xmlns="http://www.w3.org/2000/svg">
<path d="M4.5624 9.55L0.349902 5.35C0.299902 5.3 0.264569 5.24583 0.243902 5.1875C0.222902 5.12916 0.212402 5.06666 0.212402 5C0.212402 4.93333 0.222902 4.87083 0.243902 4.8125C0.264569 4.75416 0.299902 4.7 0.349902 4.65L4.5624 0.437497C4.67907 0.32083 4.8249 0.262497 4.9999 0.262497C5.1749 0.262497 5.3249 0.324997 5.4499 0.449997C5.5749 0.574997 5.6374 0.72083 5.6374 0.887497C5.6374 1.05416 5.5749 1.2 5.4499 1.325L1.7749 5L5.4499 8.675C5.56657 8.79167 5.6249 8.93533 5.6249 9.106C5.6249 9.277 5.5624 9.425 5.4374 9.55C5.3124 9.675 5.16657 9.7375 4.9999 9.7375C4.83324 9.7375 4.6874 9.675 4.5624 9.55Z" fill="#053354"/>
</svg>
