<svg width="6" height="10" viewBox="0 0 6 10" fill="none" xmlns="http://www.w3.org/2000/svg">
<path d="M1.4376 0.450002L5.6501 4.65C5.7001 4.7 5.73543 4.75417 5.7561 4.8125C5.7771 4.87084 5.7876 4.93334 5.7876 5C5.7876 5.06667 5.7771 5.12917 5.7561 5.1875C5.73543 5.24584 5.7001 5.3 5.6501 5.35L1.4376 9.5625C1.32093 9.67917 1.1751 9.7375 1.0001 9.7375C0.825098 9.7375 0.675098 9.675 0.550098 9.55C0.425098 9.425 0.362598 9.27917 0.362598 9.1125C0.362598 8.94584 0.425098 8.8 0.550098 8.675L4.2251 5L0.550098 1.325C0.433431 1.20833 0.375098 1.06467 0.375098 0.894002C0.375098 0.723001 0.437598 0.575002 0.562598 0.450002C0.687598 0.325002 0.833431 0.262502 1.0001 0.262502C1.16676 0.262502 1.3126 0.325002 1.4376 0.450002Z" fill="#053354"/>
</svg>
